<?xml version="1.0" encoding="utf-8"?>
<!-- Generator: Adobe Illustrator 23.0.4, SVG Export Plug-In . SVG Version: 6.00 Build 0)  -->
<svg version="1.1" id="Layer_1" xmlns="http://www.w3.org/2000/svg" xmlns:xlink="http://www.w3.org/1999/xlink" x="0px" y="0px"
	 viewBox="0 0 241.2 262.8" style="enable-background:new 0 0 241.2 262.8;" xml:space="preserve">
<style type="text/css">
	.st0{fill:#F3BEDD;}
</style>
<g>
	<path class="st0" d="M148.6,39.8c0.1,6.6-3.2,11.9-7.2,16.7c-4,4.8-8.2,9.3-12.1,14.1c-11.9,14.5-8.4,22.6,2.1,35.2
		c4.6,5.6,9.8,10.6,13.8,16.8c4.9,7.7,4.9,15.2,0,22.8c-5,7.7-11.8,13.9-17.3,21.3c-7.8,10.3-7.9,19.2,0.1,29.2
		c4.2,5.2,8.8,10.2,13.1,15.3c3.5,4.1,6.4,8.5,7.7,13.9c1.8,7.7-2.3,14.2-10.3,16.4c-5.8,1.6-14.3-3-14.9-9.6
		c-1.2-13.4-10-22-18-31.2c-2.8-3.2-5.2-6.5-7.4-10c-4.7-7.7-2.8-16.9,4.4-25.8c5.2-6.4,11.6-11.9,15.8-19.1
		c6-10.4,5.3-18.1-2.6-27.5c-4.1-4.9-8.3-9.7-12.5-14.5C92.8,91.6,93,81.5,103.7,69.3c5-5.7,10.5-11,14.5-17.5
		c3.1-4.9,5.5-9.5,1.6-15.6c-3.3-5-0.5-12.9,4.4-16.1c5.8-3.8,12.1-3,16.9,1.9C144.8,26,148.6,34.9,148.6,39.8z"/>
</g>
</svg>
