<?xml version="1.0" encoding="utf-8"?>
<!-- Generator: Adobe Illustrator 23.0.4, SVG Export Plug-In . SVG Version: 6.00 Build 0)  -->
<svg version="1.1" id="Layer_1" xmlns="http://www.w3.org/2000/svg" xmlns:xlink="http://www.w3.org/1999/xlink" x="0px" y="0px"
	 viewBox="0 0 52 57.2" style="enable-background:new 0 0 52 57.2;" xml:space="preserve">
<style type="text/css">
	.st0{fill:#FED2E5;}
	.st1{fill:#F3BEDD;}
</style>
<g>
	<path class="st0" d="M37.6,28.1c-1.3,0.1-2.4-0.4-3.4-1.2c-0.2-0.2-0.3-0.2-0.6,0c-1.8,1.3-3.7,1.6-5.8,0.7c-0.4-0.2-0.7-0.4-1-0.7
		c-0.2-0.2-0.3-0.2-0.5,0c-1.9,1.7-4.8,1.7-6.8,0.1c-0.3-0.2-0.4-0.2-0.6,0c-1.9,1.5-4.6,1.5-6.4,0.2c-1.5-1.1-2.4-3.3-2.1-5.2
		c0.2-1.5,0.5-2.9,1-4.4c1-2.7,2.6-4.9,4.8-6.8c1.9-1.6,4.1-2.7,6.5-3.4C24.4,7,26.2,6.9,28,7c2.1,0.2,4.1,0.8,5.9,1.7
		c2.9,1.5,5.1,3.6,6.7,6.5c1.1,1.8,1.7,3.8,2,5.9c0.2,1.3,0.2,2.5-0.3,3.8C41.7,26.7,39.6,28.2,37.6,28.1z"/>
	<path class="st1" d="M21.4,30.7c0,1-0.3,1.5-0.7,2c-0.4,0.4-0.8,0.9-1.1,1.3c-1.2,1.4-0.8,2.2,0.2,3.4c0.5,0.5,1,1,1.3,1.7
		c0.4,0.7,0.4,1.4,0,2.1c-0.5,0.8-1.2,1.4-1.7,2.1c-0.8,1.1-0.8,1.9,0.1,2.9c0.5,0.6,1.1,1.2,1.5,1.8c0.3,0.4,0.6,0.9,0.4,1.5
		c-0.2,0.6-0.8,1-1.3,1c-0.6,0-1.2-0.6-1.2-1.1c-0.1-0.9-0.6-1.5-1.1-2.2c-0.4-0.5-0.8-0.9-1.1-1.4c-0.5-0.8-0.5-1.5,0-2.3
		c0.4-0.6,0.9-1.1,1.3-1.6c1.3-1.6,1-2.4-0.2-3.9c-0.3-0.3-0.6-0.6-0.9-1c-0.9-1.1-0.8-2.1,0.2-3.2c0.5-0.5,1-1.1,1.4-1.7
		c0.3-0.5,0.5-0.9,0.1-1.5c-0.3-0.5-0.1-1.2,0.4-1.6c0.5-0.4,1.2-0.3,1.6,0.2C21.1,29.8,21.4,30.3,21.4,30.7z"/>
	<path class="st1" d="M26.4,31c0,0.7-0.3,1.2-0.7,1.7c-0.4,0.4-0.8,0.9-1.1,1.3c-1.2,1.4-0.8,2.2,0.2,3.4c0.5,0.5,1,1,1.3,1.7
		c0.4,0.7,0.4,1.4,0,2.1c-0.5,0.8-1.2,1.4-1.7,2.1c-0.7,1-0.7,1.9,0.1,2.8c0.5,0.6,1.1,1.2,1.6,1.9c0.3,0.5,0.6,1,0.4,1.6
		c-0.2,0.5-0.8,1-1.2,0.9c-0.6,0-1.2-0.6-1.2-1.1c-0.1-0.9-0.6-1.5-1.1-2.2c-0.4-0.5-0.8-0.9-1.1-1.4c-0.5-0.8-0.5-1.5,0-2.3
		c0.4-0.6,1-1.2,1.5-1.8c0.9-1.1,0.9-2.1,0-3.2c-0.4-0.4-0.7-0.9-1.1-1.3c-1-1.2-1-2.2,0.1-3.4c0.5-0.5,1-1.1,1.4-1.7
		c0.3-0.4,0.5-0.9,0.1-1.4c-0.3-0.5-0.1-1.2,0.4-1.6c0.5-0.4,1.2-0.3,1.6,0.2C26,29.6,26.4,30.5,26.4,31z"/>
	<path class="st1" d="M31.4,31c0,0.6-0.3,1.1-0.7,1.6c-0.4,0.5-0.8,0.9-1.2,1.4c-1.1,1.4-0.8,2.2,0.2,3.4c0.4,0.5,0.9,1,1.3,1.6
		c0.5,0.7,0.5,1.5,0,2.2c-0.5,0.7-1.1,1.3-1.7,2c-0.7,1-0.8,1.8,0,2.8c0.4,0.5,0.8,1,1.3,1.5c0.3,0.4,0.6,0.8,0.7,1.3
		c0.2,0.7-0.2,1.4-1,1.6c-0.6,0.1-1.4-0.3-1.4-0.9c-0.1-1.3-1-2.1-1.7-3c-0.3-0.3-0.5-0.6-0.7-1c-0.4-0.7-0.3-1.6,0.4-2.5
		c0.5-0.6,1.1-1.1,1.5-1.8c0.6-1,0.5-1.7-0.2-2.6c-0.4-0.5-0.8-0.9-1.2-1.4c-1-1.2-1-2.2,0-3.3c0.5-0.5,1-1.1,1.4-1.7
		c0.3-0.5,0.5-0.9,0.2-1.5c-0.3-0.5,0-1.2,0.4-1.5c0.6-0.4,1.2-0.3,1.6,0.2C31,29.7,31.4,30.5,31.4,31z"/>
	<path class="st1" d="M36.4,30.7c0,0.9-0.3,1.5-0.7,1.9c-0.4,0.4-0.8,0.9-1.1,1.3c-1.1,1.4-0.8,2.2,0.2,3.4c0.4,0.5,0.9,1,1.3,1.6
		c0.5,0.8,0.5,1.5,0,2.2c-0.5,0.7-1.1,1.3-1.6,2c-0.8,1-0.8,1.9,0.1,2.9c0.5,0.6,1.1,1.2,1.6,1.9c0.3,0.4,0.6,0.9,0.4,1.5
		c-0.2,0.6-0.8,1-1.3,1c-0.6-0.1-1.2-0.6-1.2-1.2c0-0.9-0.5-1.5-1.1-2.1c-0.4-0.4-0.7-0.8-1.1-1.3c-0.7-1-0.6-1.9,0.2-2.9
		c0.5-0.6,1.1-1.1,1.5-1.8c0.6-1,0.5-1.7-0.2-2.6c-0.4-0.5-0.8-0.9-1.2-1.4c-1-1.2-1-2.2,0.1-3.4c0.5-0.5,1-1,1.4-1.6
		c0.3-0.5,0.5-0.9,0.2-1.5c-0.3-0.5-0.1-1.2,0.4-1.5c0.6-0.4,1.2-0.3,1.6,0.2C36.1,29.8,36.4,30.3,36.4,30.7z"/>
</g>
</svg>
