<?xml version="1.0" encoding="utf-8"?>
<!-- Generator: Adobe Illustrator 23.0.4, SVG Export Plug-In . SVG Version: 6.00 Build 0)  -->
<svg version="1.1" id="Layer_1" xmlns="http://www.w3.org/2000/svg" xmlns:xlink="http://www.w3.org/1999/xlink" x="0px" y="0px"
	 viewBox="0 0 241.2 262.8" style="enable-background:new 0 0 241.2 262.8;" xml:space="preserve">
<style type="text/css">
	.st0{fill:#F3BEDD;}
</style>
<g>
	<path class="st0" d="M69.9,38.1c0.1,10.1-3.2,15.5-7.5,20.4c-3.9,4.6-8,9.1-11.8,13.7c-12,14.6-8.5,22.9,2.2,35.6
		c4.8,5.7,10.2,10.9,14,17.3c4.3,7.2,4.3,14.4-0.1,21.5c-5,8-12,14.2-17.6,21.7c-8.2,10.9-7.9,19.9,0.9,30.4
		c5.4,6.3,11,12.5,15.8,19.2c3.3,4.5,6.1,9.7,4.1,15.9c-2,5.9-7.8,10.4-13.1,10c-5.9-0.5-12.3-6-12.7-11.9
		c-0.6-9.3-5.8-16-11.4-22.6c-4-4.7-8.3-9.2-11.8-14.4c-5.5-8-5.1-15.8-0.1-23.7c3.9-6.2,9.3-11.1,13.9-16.7
		c14-16.7,10.7-24.7-2.4-40.1c-2.9-3.4-6.1-6.6-8.9-10.1c-9.2-11.2-8.4-21.7,1.9-33.4c5-5.7,10.5-11,14.5-17.5
		c2.9-4.8,5.3-9.2,1.4-15.2c-3.3-5-0.6-12.9,4.2-16.1c5.7-3.8,12.5-3.5,16.8,1.8C66.3,28.8,69.7,34.5,69.9,38.1z"/>
	<path class="st0" d="M121.9,41.3c0.1,6.8-3.2,12.2-7.4,17.2c-3.9,4.6-8,9.1-11.8,13.7c-12.1,14.6-8.5,22.9,2.1,35.6
		c4.8,5.7,10.1,10.9,14,17.3c4.3,7.2,4.4,14.4,0,21.5c-5,8.1-12.2,14.5-17.9,22.1c-7.6,10.2-7.4,19.7,0.8,29.6
		c5.4,6.5,11.2,12.7,16.1,19.5c3.4,4.7,6.2,10,4,16.4c-2,5.6-7.9,9.9-13,9.5c-5.9-0.4-12.4-5.9-12.7-11.9c-0.6-9.3-5.8-16-11.4-22.6
		c-4-4.7-8.3-9.2-11.8-14.4c-5.6-8.2-5.1-16.1,0.1-24.2c4.3-6.7,10.2-12.1,15.3-18.3c9.7-11.7,9.8-21.7-0.1-33.3
		c-3.8-4.5-7.6-8.9-11.4-13.4C65.9,93,66.3,83,77.5,70.4c5-5.7,10.5-11,14.5-17.6c2.8-4.6,5-9,1.2-14.7c-3.3-5-0.7-12.9,4.1-16.1
		c5.7-3.9,12.1-3.2,16.9,1.7C117.9,27.4,121.8,36.5,121.9,41.3z"/>
	<path class="st0" d="M173.8,41.5c0.1,6.6-3.2,11.9-7.2,16.7c-4,4.8-8.2,9.3-12.1,14.1c-11.9,14.5-8.4,22.6,2.1,35.2
		c4.6,5.6,9.8,10.6,13.8,16.8c4.9,7.7,4.9,15.2,0,22.8c-5,7.7-11.8,13.9-17.3,21.3c-7.8,10.3-7.9,19.2,0.1,29.2
		c4.2,5.2,8.8,10.2,13.1,15.3c3.5,4.1,6.4,8.5,7.7,13.9c1.8,7.7-2.3,14.2-10.3,16.4c-5.8,1.6-14.3-3-14.9-9.6
		c-1.2-13.4-10-22-18-31.2c-2.8-3.2-5.2-6.5-7.4-10c-4.7-7.7-2.8-16.9,4.4-25.8c5.2-6.4,11.6-11.9,15.8-19.1
		c6-10.4,5.3-18.1-2.6-27.5c-4.1-4.9-8.3-9.7-12.5-14.5C118,93.3,118.3,83.2,128.9,71c5-5.7,10.5-11,14.5-17.5
		c3.1-4.9,5.5-9.5,1.6-15.6c-3.3-5-0.5-12.9,4.4-16.1c5.8-3.8,12.1-3,16.9,1.9C170,27.7,173.8,36.6,173.8,41.5z"/>
	<path class="st0" d="M225.8,38.5c0,9.8-3.3,15.1-7.6,20.1c-3.9,4.6-8,9.1-11.8,13.8c-11.9,14.6-8.4,22.7,2,35.2
		c4.6,5.6,9.8,10.6,13.8,16.8c5,7.9,4.9,15.5-0.2,23.3c-5,7.5-11.7,13.6-17,20.8c-8,10.7-7.8,19.8,0.7,30
		c5.4,6.5,11.2,12.7,16.1,19.6c3.3,4.5,6.1,9.7,4,15.9c-2,5.9-7.9,10.4-13.2,9.9c-5.9-0.6-12.3-6-12.6-12
		c-0.5-9.2-5.6-15.7-11.1-22.2c-3.7-4.3-7.7-8.5-10.9-13.1c-7.5-10.7-6.7-19.3,1.7-29.6c5.2-6.4,11.6-11.9,15.8-19.1
		c6.1-10.5,5.4-18.1-2.5-27.5c-4.1-4.9-8.3-9.7-12.5-14.5c-10.6-12.5-10.3-22.6,0.6-34.9c4.9-5.5,10.3-10.8,14.2-17.1
		c3.1-4.9,5.6-9.5,1.6-15.6c-3.3-5-0.6-12.9,4.3-16.1c5.7-3.8,12.5-3.4,16.8,1.9C222.2,28.9,225.6,34.5,225.8,38.5z"/>
</g>
</svg>
